<?xml version="1.0" encoding="UTF-8" standalone="no"?>
<!DOCTYPE svg PUBLIC "-//W3C//DTD SVG 1.1//EN"
 "http://www.w3.org/Graphics/SVG/1.1/DTD/svg11.dtd">
<!-- Generated by graphviz version 9.0.0 (20230911.1827)
 -->
<!-- Title: G Pages: 1 -->
<svg width="459pt" height="674pt"
 viewBox="0.00 0.00 459.09 674.30" xmlns="http://www.w3.org/2000/svg" xmlns:xlink="http://www.w3.org/1999/xlink">
<g id="graph0" class="graph" transform="scale(1 1) rotate(0) translate(4 670.3)">
<title>G</title><style>.edge>path:hover{stroke-width:8}</style>
<polygon fill="white" stroke="none" points="-4,4 -4,-670.3 455.09,-670.3 455.09,4 -4,4"/>
<!-- toydl -->
<g id="node1" class="node">
<title>toydl</title><style>.edge>path:hover{stroke-width:8}</style>
<ellipse fill="#ef0606" stroke="black" cx="42.07" cy="-351.65" rx="27" ry="18"/>
<text text-anchor="middle" x="42.07" y="-347.78" font-family="Helvetica,sans-Serif" font-size="10.00" fill="#ffffff">toydl</text>
</g>
<!-- toydl_core -->
<g id="node2" class="node">
<title>toydl_core</title><style>.edge>path:hover{stroke-width:8}</style>
<ellipse fill="#e50505" stroke="black" cx="42.07" cy="-446.7" rx="34.76" ry="18"/>
<text text-anchor="middle" x="42.07" y="-442.82" font-family="Helvetica,sans-Serif" font-size="10.00" fill="#ffffff">toydl.core</text>
</g>
<!-- toydl_core&#45;&gt;toydl -->
<g id="edge1" class="edge">
<title>toydl_core&#45;&gt;toydl</title><style>.edge>path:hover{stroke-width:8}</style>
<path fill="none" stroke="black" d="M42.07,-428.63C42.07,-415.34 42.07,-396.59 42.07,-381.04"/>
<polygon fill="#e50505" stroke="black" points="45.57,-381.44 42.07,-371.44 38.57,-381.44 45.57,-381.44"/>
</g>
<!-- toydl_layer_linear -->
<g id="node13" class="node">
<title>toydl_layer_linear</title><style>.edge>path:hover{stroke-width:8}</style>
<ellipse fill="#a83838" stroke="black" cx="115.07" cy="-161.57" rx="28.28" ry="29.52"/>
<text text-anchor="middle" x="115.07" y="-168.94" font-family="Helvetica,sans-Serif" font-size="10.00" fill="#ffffff">toydl.</text>
<text text-anchor="middle" x="115.07" y="-157.69" font-family="Helvetica,sans-Serif" font-size="10.00" fill="#ffffff">layer.</text>
<text text-anchor="middle" x="115.07" y="-146.44" font-family="Helvetica,sans-Serif" font-size="10.00" fill="#ffffff">linear</text>
</g>
<!-- toydl_core&#45;&gt;toydl_layer_linear -->
<g id="edge2" class="edge">
<title>toydl_core&#45;&gt;toydl_layer_linear</title><style>.edge>path:hover{stroke-width:8}</style>
<path fill="none" stroke="black" d="M59.07,-255.61C69.3,-235.35 82.29,-213.57 93.19,-196.18"/>
<polygon fill="#e50505" stroke="black" points="96.12,-198.09 98.51,-187.77 90.2,-194.35 96.12,-198.09"/>
</g>
<!-- toydl_loss_cross_entropy -->
<g id="node15" class="node">
<title>toydl_loss_cross_entropy</title><style>.edge>path:hover{stroke-width:8}</style>
<ellipse fill="#964040" stroke="black" cx="292.07" cy="-256.61" rx="54.8" ry="29.52"/>
<text text-anchor="middle" x="292.07" y="-263.98" font-family="Helvetica,sans-Serif" font-size="10.00" fill="#ffffff">toydl.</text>
<text text-anchor="middle" x="292.07" y="-252.73" font-family="Helvetica,sans-Serif" font-size="10.00" fill="#ffffff">loss.</text>
<text text-anchor="middle" x="292.07" y="-241.48" font-family="Helvetica,sans-Serif" font-size="10.00" fill="#ffffff">cross_entropy</text>
</g>
<!-- toydl_core&#45;&gt;toydl_loss_cross_entropy -->
<g id="edge3" class="edge">
<title>toydl_core&#45;&gt;toydl_loss_cross_entropy</title><style>.edge>path:hover{stroke-width:8}</style>
<path fill="none" stroke="black" d="M221.07,-350.65C238.01,-333.09 254.68,-311.53 267.6,-293.59"/>
<polygon fill="#e50505" stroke="black" points="270.19,-295.99 273.13,-285.82 264.48,-291.94 270.19,-295.99"/>
<path fill="none" stroke="black" d="M70.04,-435.45C112.98,-419.56 191.36,-389.9 202.07,-381.17 213.89,-371.56 210.5,-363.62 221.07,-352.65"/>
</g>
<!-- toydl_network_mlp -->
<g id="node16" class="node">
<title>toydl_network_mlp</title><style>.edge>path:hover{stroke-width:8}</style>
<ellipse fill="#8f3d3d" stroke="black" cx="209.07" cy="-29.52" rx="37.83" ry="29.52"/>
<text text-anchor="middle" x="209.07" y="-36.9" font-family="Helvetica,sans-Serif" font-size="10.00" fill="#ffffff">toydl.</text>
<text text-anchor="middle" x="209.07" y="-25.65" font-family="Helvetica,sans-Serif" font-size="10.00" fill="#ffffff">network.</text>
<text text-anchor="middle" x="209.07" y="-14.4" font-family="Helvetica,sans-Serif" font-size="10.00" fill="#ffffff">mlp</text>
</g>
<!-- toydl_core&#45;&gt;toydl_network_mlp -->
<g id="edge4" class="edge">
<title>toydl_core&#45;&gt;toydl_network_mlp</title><style>.edge>path:hover{stroke-width:8}</style>
<path fill="none" stroke="black" d="M59.07,-255.61C84.11,-206 41.12,-173.54 78.07,-132.04 118.23,-86.95 204.18,-156.23 209.07,-96.04"/>
<path fill="none" stroke="black" d="M29.92,-429.46C21.38,-416.98 10.69,-398.93 6.07,-381.17 -0.53,-355.78 -2.77,-346.84 6.07,-322.13 18.58,-287.19 41.42,-290.25 59.07,-257.61"/>
<path fill="none" stroke="black" d="M209.07,-95.04C209.57,-87.23 209.79,-78.88 209.86,-70.86"/>
<polygon fill="#e50505" stroke="black" points="213.36,-70.97 209.85,-60.97 206.36,-70.97 213.36,-70.97"/>
</g>
<!-- toydl_core_context -->
<g id="node3" class="node">
<title>toydl_core_context</title><style>.edge>path:hover{stroke-width:8}</style>
<ellipse fill="#c24747" stroke="black" cx="168.07" cy="-541.74" rx="34.12" ry="29.52"/>
<text text-anchor="middle" x="168.07" y="-549.11" font-family="Helvetica,sans-Serif" font-size="10.00" fill="#ffffff">toydl.</text>
<text text-anchor="middle" x="168.07" y="-537.86" font-family="Helvetica,sans-Serif" font-size="10.00" fill="#ffffff">core.</text>
<text text-anchor="middle" x="168.07" y="-526.61" font-family="Helvetica,sans-Serif" font-size="10.00" fill="#ffffff">context</text>
</g>
<!-- toydl_core_scalar -->
<g id="node7" class="node">
<title>toydl_core_scalar</title><style>.edge>path:hover{stroke-width:8}</style>
<ellipse fill="#b81414" stroke="black" cx="164.07" cy="-446.7" rx="29.88" ry="29.52"/>
<text text-anchor="middle" x="164.07" y="-454.07" font-family="Helvetica,sans-Serif" font-size="10.00" fill="#ffffff">toydl.</text>
<text text-anchor="middle" x="164.07" y="-442.82" font-family="Helvetica,sans-Serif" font-size="10.00" fill="#ffffff">core.</text>
<text text-anchor="middle" x="164.07" y="-431.57" font-family="Helvetica,sans-Serif" font-size="10.00" fill="#ffffff">scalar</text>
</g>
<!-- toydl_core_context&#45;&gt;toydl_core_scalar -->
<g id="edge5" class="edge">
<title>toydl_core_context&#45;&gt;toydl_core_scalar</title><style>.edge>path:hover{stroke-width:8}</style>
<path fill="none" stroke="black" d="M166.83,-511.81C166.51,-504.28 166.15,-496.04 165.81,-488.04"/>
<polygon fill="#c24747" stroke="black" points="169.31,-487.96 165.38,-478.12 162.32,-488.26 169.31,-487.96"/>
</g>
<!-- toydl_core_module -->
<g id="node4" class="node">
<title>toydl_core_module</title><style>.edge>path:hover{stroke-width:8}</style>
<ellipse fill="#c82323" stroke="black" cx="159.07" cy="-351.65" rx="33.59" ry="29.52"/>
<text text-anchor="middle" x="159.07" y="-359.03" font-family="Helvetica,sans-Serif" font-size="10.00" fill="#ffffff">toydl.</text>
<text text-anchor="middle" x="159.07" y="-347.78" font-family="Helvetica,sans-Serif" font-size="10.00" fill="#ffffff">core.</text>
<text text-anchor="middle" x="159.07" y="-336.53" font-family="Helvetica,sans-Serif" font-size="10.00" fill="#ffffff">module</text>
</g>
<!-- toydl_core_optim -->
<g id="node6" class="node">
<title>toydl_core_optim</title><style>.edge>path:hover{stroke-width:8}</style>
<ellipse fill="#a44646" stroke="black" cx="153.07" cy="-256.61" rx="28.28" ry="29.52"/>
<text text-anchor="middle" x="153.07" y="-263.98" font-family="Helvetica,sans-Serif" font-size="10.00" fill="#ffffff">toydl.</text>
<text text-anchor="middle" x="153.07" y="-252.73" font-family="Helvetica,sans-Serif" font-size="10.00" fill="#ffffff">core.</text>
<text text-anchor="middle" x="153.07" y="-241.48" font-family="Helvetica,sans-Serif" font-size="10.00" fill="#ffffff">optim</text>
</g>
<!-- toydl_core_module&#45;&gt;toydl_core_optim -->
<g id="edge6" class="edge">
<title>toydl_core_module&#45;&gt;toydl_core_optim</title><style>.edge>path:hover{stroke-width:8}</style>
<path fill="none" stroke="black" d="M157.21,-321.72C156.72,-314.2 156.19,-305.95 155.68,-297.95"/>
<polygon fill="#c82323" stroke="black" points="159.17,-297.78 155.04,-288.03 152.19,-298.24 159.17,-297.78"/>
</g>
<!-- toydl_core_module&#45;&gt;toydl_layer_linear -->
<g id="edge7" class="edge">
<title>toydl_core_module&#45;&gt;toydl_layer_linear</title><style>.edge>path:hover{stroke-width:8}</style>
<path fill="none" stroke="black" d="M135.92,-329.9C119.07,-312.54 98.9,-286.08 97.07,-257.61"/>
</g>
<!-- toydl_core_module&#45;&gt;toydl_network_mlp -->
<g id="edge8" class="edge">
<title>toydl_core_module&#45;&gt;toydl_network_mlp</title><style>.edge>path:hover{stroke-width:8}</style>
<path fill="none" stroke="black" d="M174.05,-324.78C180.02,-313.31 186.35,-299.41 190.07,-286.13 213.03,-204.39 202.45,-180.69 209.07,-96.04"/>
</g>
<!-- toydl_core_operator -->
<g id="node5" class="node">
<title>toydl_core_operator</title><style>.edge>path:hover{stroke-width:8}</style>
<ellipse fill="#ce3b3b" stroke="black" cx="42.07" cy="-541.74" rx="36.24" ry="29.52"/>
<text text-anchor="middle" x="42.07" y="-549.11" font-family="Helvetica,sans-Serif" font-size="10.00" fill="#ffffff">toydl.</text>
<text text-anchor="middle" x="42.07" y="-537.86" font-family="Helvetica,sans-Serif" font-size="10.00" fill="#ffffff">core.</text>
<text text-anchor="middle" x="42.07" y="-526.61" font-family="Helvetica,sans-Serif" font-size="10.00" fill="#ffffff">operator</text>
</g>
<!-- toydl_core_operator&#45;&gt;toydl_core -->
<g id="edge9" class="edge">
<title>toydl_core_operator&#45;&gt;toydl_core</title><style>.edge>path:hover{stroke-width:8}</style>
<path fill="none" stroke="black" d="M42.07,-511.81C42.07,-500.53 42.07,-487.62 42.07,-476.37"/>
<polygon fill="#ce3b3b" stroke="black" points="45.57,-476.46 42.07,-466.46 38.57,-476.46 45.57,-476.46"/>
</g>
<!-- toydl_core_operator&#45;&gt;toydl_core_scalar -->
<g id="edge10" class="edge">
<title>toydl_core_operator&#45;&gt;toydl_core_scalar</title><style>.edge>path:hover{stroke-width:8}</style>
<path fill="none" stroke="black" d="M68.25,-520.78C86.86,-506.58 111.99,-487.42 131.84,-472.28"/>
<polygon fill="#ce3b3b" stroke="black" points="133.8,-475.19 139.63,-466.34 129.55,-469.62 133.8,-475.19"/>
</g>
<!-- toydl_core_scalar&#45;&gt;toydl_core_module -->
<g id="edge11" class="edge">
<title>toydl_core_scalar&#45;&gt;toydl_core_module</title><style>.edge>path:hover{stroke-width:8}</style>
<path fill="none" stroke="black" d="M162.52,-416.77C162.12,-409.24 161.67,-400.99 161.24,-392.99"/>
<polygon fill="#b81414" stroke="black" points="164.74,-392.87 160.71,-383.07 157.75,-393.25 164.74,-392.87"/>
</g>
<!-- toydl_core_scalar&#45;&gt;toydl_layer_linear -->
<g id="edge12" class="edge">
<title>toydl_core_scalar&#45;&gt;toydl_layer_linear</title><style>.edge>path:hover{stroke-width:8}</style>
<path fill="none" stroke="black" d="M97.07,-255.61C95.91,-237.47 99.11,-217.65 103.11,-200.99"/>
<polygon fill="#b81414" stroke="black" points="106.46,-202.04 105.59,-191.48 99.68,-200.27 106.46,-202.04"/>
<path fill="none" stroke="black" d="M144.03,-424.37C134.04,-412.53 122.7,-397.02 116.07,-381.17 94.64,-329.91 100.63,-313.06 97.07,-257.61"/>
</g>
<!-- toydl_core_scalar&#45;&gt;toydl_loss_cross_entropy -->
<g id="edge13" class="edge">
<title>toydl_core_scalar&#45;&gt;toydl_loss_cross_entropy</title><style>.edge>path:hover{stroke-width:8}</style>
<path fill="none" stroke="black" d="M178.78,-420.45C193.81,-394.86 215.68,-358.24 221.07,-352.65"/>
</g>
<!-- toydl_core_scalar&#45;&gt;toydl_network_mlp -->
<g id="edge14" class="edge">
<title>toydl_core_scalar&#45;&gt;toydl_network_mlp</title><style>.edge>path:hover{stroke-width:8}</style>
<path fill="none" stroke="black" d="M193.9,-442.12C230.88,-436.09 293.4,-420.45 329.07,-381.17 358.6,-348.67 350.02,-329.62 356.07,-286.13 365.8,-216.27 369.46,-180.37 318.07,-132.04 280.91,-97.09 204.94,-146.89 209.07,-96.04"/>
</g>
<!-- toydl_dataset_base -->
<g id="node8" class="node">
<title>toydl_dataset_base</title><style>.edge>path:hover{stroke-width:8}</style>
<ellipse fill="#c24747" stroke="black" cx="315.07" cy="-636.78" rx="36.24" ry="29.52"/>
<text text-anchor="middle" x="315.07" y="-644.16" font-family="Helvetica,sans-Serif" font-size="10.00" fill="#ffffff">toydl.</text>
<text text-anchor="middle" x="315.07" y="-632.91" font-family="Helvetica,sans-Serif" font-size="10.00" fill="#ffffff">dataset.</text>
<text text-anchor="middle" x="315.07" y="-621.66" font-family="Helvetica,sans-Serif" font-size="10.00" fill="#ffffff">base</text>
</g>
<!-- toydl_dataset_simple -->
<g id="node10" class="node">
<title>toydl_dataset_simple</title><style>.edge>path:hover{stroke-width:8}</style>
<ellipse fill="#a83838" stroke="black" cx="362.07" cy="-541.74" rx="36.24" ry="29.52"/>
<text text-anchor="middle" x="362.07" y="-549.11" font-family="Helvetica,sans-Serif" font-size="10.00" fill="#ffffff">toydl.</text>
<text text-anchor="middle" x="362.07" y="-537.86" font-family="Helvetica,sans-Serif" font-size="10.00" fill="#ffffff">dataset.</text>
<text text-anchor="middle" x="362.07" y="-526.61" font-family="Helvetica,sans-Serif" font-size="10.00" fill="#ffffff">simple</text>
</g>
<!-- toydl_dataset_base&#45;&gt;toydl_dataset_simple -->
<g id="edge15" class="edge">
<title>toydl_dataset_base&#45;&gt;toydl_dataset_simple</title><style>.edge>path:hover{stroke-width:8}</style>
<path fill="none" stroke="black" d="M328.42,-609.37C333.09,-600.12 338.43,-589.55 343.45,-579.6"/>
<polygon fill="#c24747" stroke="black" points="346.47,-581.4 347.85,-570.89 340.22,-578.24 346.47,-581.4"/>
</g>
<!-- toydl_dataset_exception -->
<g id="node9" class="node">
<title>toydl_dataset_exception</title><style>.edge>path:hover{stroke-width:8}</style>
<ellipse fill="#c24747" stroke="black" cx="410.07" cy="-636.78" rx="41.01" ry="29.52"/>
<text text-anchor="middle" x="410.07" y="-644.16" font-family="Helvetica,sans-Serif" font-size="10.00" fill="#ffffff">toydl.</text>
<text text-anchor="middle" x="410.07" y="-632.91" font-family="Helvetica,sans-Serif" font-size="10.00" fill="#ffffff">dataset.</text>
<text text-anchor="middle" x="410.07" y="-621.66" font-family="Helvetica,sans-Serif" font-size="10.00" fill="#ffffff">exception</text>
</g>
<!-- toydl_dataset_exception&#45;&gt;toydl_dataset_simple -->
<g id="edge16" class="edge">
<title>toydl_dataset_exception&#45;&gt;toydl_dataset_simple</title><style>.edge>path:hover{stroke-width:8}</style>
<path fill="none" stroke="black" d="M396.19,-608.87C391.42,-599.63 386,-589.12 380.91,-579.25"/>
<polygon fill="#c24747" stroke="black" points="384.15,-577.9 376.45,-570.61 377.93,-581.11 384.15,-577.9"/>
</g>
<!-- toydl_dataset_simulation -->
<g id="node11" class="node">
<title>toydl_dataset_simulation</title><style>.edge>path:hover{stroke-width:8}</style>
<ellipse fill="#a44646" stroke="black" cx="362.07" cy="-446.7" rx="42.6" ry="29.52"/>
<text text-anchor="middle" x="362.07" y="-454.07" font-family="Helvetica,sans-Serif" font-size="10.00" fill="#ffffff">toydl.</text>
<text text-anchor="middle" x="362.07" y="-442.82" font-family="Helvetica,sans-Serif" font-size="10.00" fill="#ffffff">dataset.</text>
<text text-anchor="middle" x="362.07" y="-431.57" font-family="Helvetica,sans-Serif" font-size="10.00" fill="#ffffff">simulation</text>
</g>
<!-- toydl_dataset_simple&#45;&gt;toydl_dataset_simulation -->
<g id="edge17" class="edge">
<title>toydl_dataset_simple&#45;&gt;toydl_dataset_simulation</title><style>.edge>path:hover{stroke-width:8}</style>
<path fill="none" stroke="black" d="M362.07,-511.81C362.07,-504.28 362.07,-496.04 362.07,-488.04"/>
<polygon fill="#a83838" stroke="black" points="365.57,-488.12 362.07,-478.12 358.57,-488.12 365.57,-488.12"/>
</g>
<!-- toydl_layer -->
<g id="node12" class="node">
<title>toydl_layer</title><style>.edge>path:hover{stroke-width:8}</style>
<ellipse fill="#c24747" stroke="black" cx="273.07" cy="-161.57" rx="36.09" ry="18"/>
<text text-anchor="middle" x="273.07" y="-157.69" font-family="Helvetica,sans-Serif" font-size="10.00" fill="#ffffff">toydl.layer</text>
</g>
<!-- toydl_layer&#45;&gt;toydl_network_mlp -->
<g id="edge18" class="edge">
<title>toydl_layer&#45;&gt;toydl_network_mlp</title><style>.edge>path:hover{stroke-width:8}</style>
<path fill="none" stroke="black" d="M247.92,-148.46C229.22,-137.49 207.24,-119.48 209.07,-96.04"/>
</g>
<!-- toydl_layer_linear&#45;&gt;toydl_network_mlp -->
<g id="edge19" class="edge">
<title>toydl_layer_linear&#45;&gt;toydl_network_mlp</title><style>.edge>path:hover{stroke-width:8}</style>
<path fill="none" stroke="black" d="M142.78,-153.79C169.59,-145.36 206.57,-128.01 209.07,-96.04"/>
</g>
<!-- toydl_loss_base -->
<g id="node14" class="node">
<title>toydl_loss_base</title><style>.edge>path:hover{stroke-width:8}</style>
<ellipse fill="#c24747" stroke="black" cx="292.07" cy="-351.65" rx="28.28" ry="29.52"/>
<text text-anchor="middle" x="292.07" y="-359.03" font-family="Helvetica,sans-Serif" font-size="10.00" fill="#ffffff">toydl.</text>
<text text-anchor="middle" x="292.07" y="-347.78" font-family="Helvetica,sans-Serif" font-size="10.00" fill="#ffffff">loss.</text>
<text text-anchor="middle" x="292.07" y="-336.53" font-family="Helvetica,sans-Serif" font-size="10.00" fill="#ffffff">base</text>
</g>
<!-- toydl_loss_base&#45;&gt;toydl_loss_cross_entropy -->
<g id="edge20" class="edge">
<title>toydl_loss_base&#45;&gt;toydl_loss_cross_entropy</title><style>.edge>path:hover{stroke-width:8}</style>
<path fill="none" stroke="black" d="M292.07,-321.72C292.07,-314.2 292.07,-305.95 292.07,-297.95"/>
<polygon fill="#c24747" stroke="black" points="295.57,-298.03 292.07,-288.03 288.57,-298.03 295.57,-298.03"/>
</g>
<!-- toydl_util -->
<g id="node17" class="node">
<title>toydl_util</title><style>.edge>path:hover{stroke-width:8}</style>
<ellipse fill="#c24747" stroke="black" cx="230.07" cy="-636.78" rx="31.21" ry="18"/>
<text text-anchor="middle" x="230.07" y="-632.91" font-family="Helvetica,sans-Serif" font-size="10.00" fill="#ffffff">toydl.util</text>
</g>
<!-- toydl_util&#45;&gt;toydl_core_scalar -->
<g id="edge21" class="edge">
<title>toydl_util&#45;&gt;toydl_core_scalar</title><style>.edge>path:hover{stroke-width:8}</style>
<path fill="none" stroke="black" d="M229.96,-618.31C229.23,-593.72 225.8,-547.93 211.07,-512.22 206.14,-500.25 198.55,-488.43 190.9,-478.23"/>
<polygon fill="#c24747" stroke="black" points="193.8,-476.26 184.86,-470.56 188.3,-480.59 193.8,-476.26"/>
</g>
<!-- toydl_util_functions -->
<g id="node18" class="node">
<title>toydl_util_functions</title><style>.edge>path:hover{stroke-width:8}</style>
<ellipse fill="#c24747" stroke="black" cx="106.07" cy="-636.78" rx="39.42" ry="29.52"/>
<text text-anchor="middle" x="106.07" y="-644.16" font-family="Helvetica,sans-Serif" font-size="10.00" fill="#ffffff">toydl.</text>
<text text-anchor="middle" x="106.07" y="-632.91" font-family="Helvetica,sans-Serif" font-size="10.00" fill="#ffffff">util.</text>
<text text-anchor="middle" x="106.07" y="-621.66" font-family="Helvetica,sans-Serif" font-size="10.00" fill="#ffffff">functions</text>
</g>
<!-- toydl_util_functions&#45;&gt;toydl_core_scalar -->
<g id="edge22" class="edge">
<title>toydl_util_functions&#45;&gt;toydl_core_scalar</title><style>.edge>path:hover{stroke-width:8}</style>
<path fill="none" stroke="black" d="M107.33,-607.03C109.17,-581.47 113.75,-543.43 125.07,-512.22 128.98,-501.44 134.78,-490.49 140.72,-480.74"/>
<polygon fill="#c24747" stroke="black" points="143.65,-482.66 146.07,-472.35 137.74,-478.9 143.65,-482.66"/>
</g>
</g>
</svg>
